<svg xmlns="http://www.w3.org/2000/svg" viewBox="0 0 24 24"><path d="M12,22A10,10,0,1,1,22,12,10.014,10.014,0,0,1,12,22Zm8.433-8.632A12.539,12.539,0,0,0,15.113,13a36.848,36.848,0,0,1,1.66,6.09,8.566,8.566,0,0,0,3.663-5.725Zm-5.1,6.507A35.491,35.491,0,0,0,13.512,13.4l-.055.017a11.67,11.67,0,0,0-6.7,5.333,8.521,8.521,0,0,0,8.575,1.127Zm-9.683-2.15A13.548,13.548,0,0,1,12.6,12.088c.113-.038.225-.07.338-.1-.217-.488-.45-.973-.693-1.45A31.534,31.534,0,0,1,3.463,11.75l0,.26a8.52,8.52,0,0,0,2.2,5.713ZM3.637,10.263a31.788,31.788,0,0,0,7.9-1.04,54.477,54.477,0,0,0-3.167-4.94,8.563,8.563,0,0,0-4.73,5.975ZM10,3.71a45.5,45.5,0,0,1,3.185,5,9.639,9.639,0,0,0,4.478-3.085A8.519,8.519,0,0,0,10,3.708Zm8.613,2.9a11.421,11.421,0,0,1-4.77,3.367c.2.408.391.821.566,1.238.067.151.125.3.184.442a20.027,20.027,0,0,1,5.95.275,8.459,8.459,0,0,0-1.925-5.317Z"/></svg>