<svg xmlns="http://www.w3.org/2000/svg" viewBox="0 0 24 24"><path d="M7.358,5.125a8.136,8.136,0,0,1,1.76.173,3.949,3.949,0,0,1,1.362.559,2.577,2.577,0,0,1,.88,1.027,3.656,3.656,0,0,1,.312,1.587,2.983,2.983,0,0,1-.465,1.705A3.35,3.35,0,0,1,9.83,11.3a3.228,3.228,0,0,1,1.854,1.256,3.765,3.765,0,0,1,.61,2.164,3.787,3.787,0,0,1-.376,1.77,3.385,3.385,0,0,1-1.064,1.238,4.69,4.69,0,0,1-1.531.7,6.725,6.725,0,0,1-1.752.233H1V5.132H7.358Zm9.226,11.15a2.257,2.257,0,0,0,1.683.593,2.4,2.4,0,0,0,1.4-.41,1.7,1.7,0,0,0,.715-.862h2.373a4.465,4.465,0,0,1-1.742,2.522,5.037,5.037,0,0,1-2.825.761,5.612,5.612,0,0,1-2.083-.367,4.545,4.545,0,0,1-1.577-1.045,4.679,4.679,0,0,1-.988-1.624,6.01,6.01,0,0,1-.342-2.081,5.591,5.591,0,0,1,.369-2.045A4.767,4.767,0,0,1,16.189,8.98a4.92,4.92,0,0,1,2.036-.4,4.627,4.627,0,0,1,2.183.48,4.4,4.4,0,0,1,1.522,1.284,5.089,5.089,0,0,1,.862,1.852,7.432,7.432,0,0,1,.193,2.183H15.933a2.774,2.774,0,0,0,.651,1.893Zm-9.445.049a3.909,3.909,0,0,0,.831-.085,2.143,2.143,0,0,0,.7-.275,1.363,1.363,0,0,0,.477-.535,1.883,1.883,0,0,0,.174-.88,1.781,1.781,0,0,0-.587-1.486,2.528,2.528,0,0,0-1.55-.44H3.967v3.714H7.139v-.013Zm12.478-5.181A2.017,2.017,0,0,0,18.1,10.6a2.278,2.278,0,0,0-1.069.218,1.981,1.981,0,0,0-.679.541,1.915,1.915,0,0,0-.36.688,3.2,3.2,0,0,0-.123.651h4.367a2.626,2.626,0,0,0-.624-1.55v.009ZM6.974,10.579A2.135,2.135,0,0,0,8.281,10.2a1.411,1.411,0,0,0,.508-1.227A1.73,1.73,0,0,0,8.624,8.2a1.338,1.338,0,0,0-.458-.469,1.938,1.938,0,0,0-.661-.236,4.018,4.018,0,0,0-.77-.068H3.957V10.58H6.974Zm8.343-4.547H20.79V7.366H15.317V6.032Z"/></svg>