<svg xmlns="http://www.w3.org/2000/svg" viewBox="0 0 24 24"><path d="M12.014,2A9.989,9.989,0,0,0,8.372,21.291a9.621,9.621,0,0,1,.035-2.866c.182-.781,1.171-4.964,1.171-4.964a3.616,3.616,0,0,1-.3-1.484c0-1.386.806-2.426,1.807-2.426a1.256,1.256,0,0,1,1.265,1.407,19.97,19.97,0,0,1-.827,3.326A1.449,1.449,0,0,0,13,16.088c1.774,0,3.14-1.87,3.14-4.572A3.943,3.943,0,0,0,11.97,7.458a4.323,4.323,0,0,0-4.508,4.333A3.892,3.892,0,0,0,8.2,14.075a.3.3,0,0,1,.071.288c-.075.312-.244,1-.278,1.135-.044.188-.144.226-.334.138-1.246-.575-2.028-2.4-2.028-3.872,0-3.146,2.29-6.043,6.6-6.043a5.865,5.865,0,0,1,6.16,5.769c0,3.446-2.172,6.218-5.194,6.218a2.7,2.7,0,0,1-2.3-1.149l-.625,2.374a10.861,10.861,0,0,1-1.248,2.621A9.99,9.99,0,1,0,11.987,2.022Z"/></svg>