<svg xmlns="http://www.w3.org/2000/svg" viewBox="0 0 24 24"><path d="M15.07,2H8.93C3.327,2,2,3.327,2,8.93v6.14C2,20.673,3.327,22,8.93,22h6.14c5.6,0,6.93-1.327,6.93-6.93V8.93C22,3.327,20.659,2,15.07,2Zm3.077,14.269H16.693c-.55,0-.72-.437-1.708-1.439-.861-.833-1.242-.946-1.453-.946-.3,0-.382.085-.382.494v1.313c0,.353-.113.565-1.044.565A5.662,5.662,0,0,1,7.66,13.587a11.705,11.705,0,0,1-2.3-4.84c0-.212.085-.41.5-.41H7.306c.367,0,.508.17.65.565.719,2.075,1.919,3.9,2.413,3.9.184,0,.268-.085.268-.55V10.1c-.056-.989-.579-1.073-.579-1.425a.351.351,0,0,1,.367-.339h2.287c.311,0,.423.169.423.535v2.895c0,.31.142.423.226.423.183,0,.339-.113.677-.452A12.366,12.366,0,0,0,15.831,8.76a.643.643,0,0,1,.636-.409H17.92c.437,0,.537.225.437.536A18.327,18.327,0,0,1,16.4,12.246c-.155.254-.212.366,0,.65.155.211.663.649,1,1.044a6.3,6.3,0,0,1,1.228,1.708c.141.409-.071.62-.48.62Z"/></svg>