<svg xmlns="http://www.w3.org/2000/svg" viewBox="0 0 24 24"><line x1="2.5" y1="2.5" x2="19.5" y2="19.5" fill="none" stroke="#000" stroke-miterlimit="10"/><path d="M10,15.5A2.5,2.5,0,0,0,12.5,13a1.3,1.3,0,0,0-.1-.6" fill="none" stroke="#000"/><path d="M15.6,15.3a5.1,5.1,0,0,0-1.5,3.5h0a3.2,3.2,0,0,1-2.9,3.3A3.1,3.1,0,0,1,7.9,19" fill="none" stroke="#000"/><path d="M5,9a6.6,6.6,0,0,1,.8-3.2" fill="none" stroke="#000"/><path d="M15,9a2.9,2.9,0,0,0-3-3,4.2,4.2,0,0,0-1.6.4" fill="none" stroke="#000"/><path d="M17.4,13.4a6.9,6.9,0,0,0,1.5-5.8,7.1,7.1,0,0,0-5.5-5.5A6.9,6.9,0,0,0,7.6,3.6" fill="none" stroke="#000" stroke-miterlimit="10"/></svg>