<svg xmlns="http://www.w3.org/2000/svg" viewBox="0 0 24 24"><path d="M2,11.7A9.648,9.648,0,0,1,12,2a9.7,9.7,0,1,1,0,19.4,10.909,10.909,0,0,1-2.891-.383.8.8,0,0,0-.534.041l-1.991.875a.8.8,0,0,1-1.125-.708L5.4,19.441a.808.808,0,0,0-.267-.567A9.491,9.491,0,0,1,2,11.7ZM8.934,9.876,6,14.542a.469.469,0,0,0,.683.625l3.158-2.392a.59.59,0,0,1,.725,0l2.333,1.75a1.5,1.5,0,0,0,2.166-.4L18,9.459a.47.47,0,0,0-.683-.625l-3.158,2.391a.576.576,0,0,1-.717,0L11.108,9.476a1.5,1.5,0,0,0-2.1.292A1.29,1.29,0,0,0,8.934,9.876Z"/></svg>