<svg xmlns="http://www.w3.org/2000/svg" viewBox="0 0 24 24"><path d="M14.5,1.5A2.5,2.5,0,0,0,12,4V6" fill="none" stroke="#000"/><circle cx="8" cy="17" r="2" fill="none" stroke="#000"/><circle cx="16" cy="17" r="2" fill="none" stroke="#000"/><path d="M6.76,18.57l-2.2,2.79A1.87,1.87,0,0,1,3.15,22h0a1.89,1.89,0,0,1-1.88-2.13l1.07-8.61A6,6,0,0,1,8.3,6h7.4a6,6,0,0,1,6,5.26l1.07,8.61A1.89,1.89,0,0,1,20.85,22h0a1.87,1.87,0,0,1-1.41-.64l-2.2-2.79" fill="none" stroke="#000"/><line x1="10" y1="17" x2="14" y2="17" fill="none" stroke="#000"/><line x1="8" y1="13" x2="8" y2="9" fill="none" stroke="#000"/><line x1="6" y1="11" x2="10" y2="11" fill="none" stroke="#000"/><line x1="14.59" y1="12.41" x2="17.41" y2="9.59" fill="none" stroke="#000"/><line x1="14.59" y1="9.59" x2="17.41" y2="12.41" fill="none" stroke="#000"/></svg>