<svg xmlns="http://www.w3.org/2000/svg" viewBox="0 0 24 24"><path d="M12.055,17.442c-3.185,0-4.608-1.567-4.608-2.742A1,1,0,0,1,8.5,13.674c1.364,0,1.008,1.961,3.553,1.961,1.3,0,2.018-.709,2.018-1.434,0-.436-.213-.919-1.072-1.131l-2.831-.709c-2.28-.573-2.694-1.81-2.694-2.97,0-2.412,2.265-3.317,4.393-3.317,1.956,0,4.27,1.087,4.27,2.532a1.043,1.043,0,0,1-1.151.982c-1.163,0-.948-1.613-3.3-1.613-1.163,0-1.815.526-1.815,1.28s.913,1,1.708,1.178l2.088.464c2.288.514,2.869,1.857,2.869,3.123,0,1.96-1.506,3.423-4.53,3.423m8.775-3.865-.023.107-.035-.19c.012.035.035.058.047.1a9.3,9.3,0,0,0,.143-1.625,8.968,8.968,0,0,0-2.632-6.346A9.081,9.081,0,0,0,15.44,3.7a7.913,7.913,0,0,0-3.426-.737,9.051,9.051,0,0,0-1.7.162l.094.047-.189-.026.094-.02A5.309,5.309,0,0,0,3.193,10.4l.016-.1.033.189L3.194,10.4a8.917,8.917,0,0,0-.136,1.548,9.043,9.043,0,0,0,.7,3.5A8.667,8.667,0,0,0,5.679,18.3,8.974,8.974,0,0,0,8.525,20.23a8.77,8.77,0,0,0,3.487.711,8.619,8.619,0,0,0,1.565-.142l-.094-.049.19.037-.107.023a5.3,5.3,0,0,0,7.908-4.624A5.355,5.355,0,0,0,20.8,13.6"/></svg>