<svg xmlns="http://www.w3.org/2000/svg" viewBox="0 0 24 24"><rect x="18" y="2" width="4" height="4" fill="none" stroke="#000" stroke-miterlimit="10"/><rect x="18" y="10" width="4" height="4" fill="none" stroke="#000" stroke-miterlimit="10"/><rect x="2" y="10" width="4" height="4" fill="none" stroke="#000" stroke-miterlimit="10"/><rect x="10" y="18" width="4" height="4" transform="translate(32 8) rotate(90)" fill="none" stroke="#000" stroke-miterlimit="10"/><rect x="10" y="2" width="4" height="4" transform="translate(16 -8) rotate(90)" fill="none" stroke="#000" stroke-miterlimit="10"/><rect x="2" y="2" width="4" height="4" fill="none" stroke="#000" stroke-miterlimit="10"/><rect x="18" y="18" width="4" height="4" fill="none" stroke="#000" stroke-miterlimit="10"/><rect x="2" y="18" width="4" height="4" fill="none" stroke="#000" stroke-miterlimit="10"/><line x1="20" y1="10" x2="20" y2="6" fill="none" stroke="#000" stroke-miterlimit="10"/><line x1="20" y1="18" x2="20" y2="14" fill="none" stroke="#000" stroke-miterlimit="10"/><line x1="4" y1="10" x2="4" y2="6" fill="none" stroke="#000" stroke-miterlimit="10"/><line x1="4" y1="18" x2="4" y2="14" fill="none" stroke="#000" stroke-miterlimit="10"/><line x1="14" y1="20" x2="18" y2="20" fill="none" stroke="#000" stroke-miterlimit="10"/><line x1="6" y1="20" x2="10" y2="20" fill="none" stroke="#000" stroke-miterlimit="10"/><line x1="14" y1="4" x2="18" y2="4" fill="none" stroke="#000" stroke-miterlimit="10"/><line x1="6" y1="4" x2="10" y2="4" fill="none" stroke="#000" stroke-miterlimit="10"/></svg>