<svg width="72" height="16" viewBox="0 0 72 16" fill="none" xmlns="http://www.w3.org/2000/svg">
<path d="M0.98999 15V5H2.88999L2.98999 6.68C3.33666 6.04 3.79666 5.56667 4.36999 5.26C4.95666 4.95333 5.57666 4.8 6.22999 4.8C6.94999 4.8 7.60999 4.96667 8.20999 5.3C8.82332 5.62 9.28332 6.10667 9.58999 6.76C9.80332 6.32 10.0967 5.95333 10.47 5.66C10.8433 5.36667 11.2567 5.15333 11.71 5.02C12.1633 4.87333 12.61 4.8 13.05 4.8C13.69 4.8 14.29 4.93333 14.85 5.2C15.41 5.46667 15.8633 5.87333 16.21 6.42C16.5567 6.96667 16.73 7.66667 16.73 8.52V15H14.59V8.86C14.59 8.03333 14.39 7.44667 13.99 7.1C13.6033 6.74 13.1167 6.56 12.53 6.56C11.8367 6.56 11.23 6.82 10.71 7.34C10.19 7.84667 9.92999 8.58667 9.92999 9.56V15H7.78999V8.86C7.78999 8.03333 7.58999 7.44667 7.18999 7.1C6.80332 6.74 6.31666 6.56 5.72999 6.56C5.32999 6.56 4.92999 6.66667 4.52999 6.88C4.12999 7.09333 3.79666 7.42667 3.52999 7.88C3.26332 8.33333 3.12999 8.93333 3.12999 9.68V15H0.98999Z" fill="black"/>
<path d="M21.0544 3.32C20.5877 3.32 20.2277 3.20667 19.9744 2.98C19.7344 2.74 19.6144 2.40667 19.6144 1.98C19.6144 1.55333 19.7344 1.22667 19.9744 1C20.2277 0.773333 20.5877 0.66 21.0544 0.66C21.5077 0.66 21.8544 0.773333 22.0944 1C22.3477 1.22667 22.4744 1.55333 22.4744 1.98C22.4744 2.40667 22.3477 2.74 22.0944 2.98C21.8544 3.20667 21.5077 3.32 21.0544 3.32ZM22.1144 5V15H19.9744V5H22.1144Z" fill="black"/>
<path d="M25.4626 15V5H27.2826L27.4826 6.8C28.0293 5.46667 29.076 4.8 30.6226 4.8C30.8226 4.8 31.0226 4.82 31.2226 4.86C31.4226 4.88667 31.5893 4.93333 31.7226 5L31.4226 6.88C31.276 6.82667 31.1093 6.78667 30.9226 6.76C30.7493 6.72 30.5093 6.7 30.2026 6.7C29.776 6.7 29.3626 6.81333 28.9626 7.04C28.576 7.25333 28.2493 7.58667 27.9826 8.04C27.7293 8.48 27.6026 9.03333 27.6026 9.7V15H25.4626Z" fill="black"/>
<path d="M40.3239 5H42.5639L38.5839 15H36.2439L32.2439 5H34.6039L37.4239 13.14L40.3239 5Z" fill="black"/>
<path d="M49.9341 8.58C49.9341 7.91333 49.7474 7.4 49.3741 7.04C49.0141 6.66667 48.5141 6.48 47.8741 6.48C47.2741 6.48 46.7541 6.62 46.3141 6.9C45.8874 7.18 45.5807 7.63333 45.3941 8.26L43.5941 7.5C43.8474 6.68667 44.3407 6.03333 45.0741 5.54C45.8207 5.04667 46.7807 4.8 47.9541 4.8C48.7407 4.8 49.4407 4.93333 50.0541 5.2C50.6807 5.45333 51.1674 5.84667 51.5141 6.38C51.8741 6.9 52.0541 7.56 52.0541 8.36V12.82C52.0541 13.3133 52.3007 13.56 52.7941 13.56C53.0341 13.56 53.2674 13.5267 53.4941 13.46L53.3741 14.94C53.0674 15.0867 52.6807 15.16 52.2141 15.16C51.6807 15.16 51.2207 15.04 50.8341 14.8C50.4474 14.56 50.1874 14.2 50.0541 13.72C49.7341 14.2133 49.2741 14.5867 48.6741 14.84C48.0741 15.08 47.4741 15.2 46.8741 15.2C45.9274 15.2 45.1407 14.9733 44.5141 14.52C43.8874 14.0667 43.5741 13.3867 43.5741 12.48C43.5741 11.7467 43.8141 11.14 44.2941 10.66C44.7874 10.18 45.4807 9.84667 46.3741 9.66L49.9341 8.96V8.58ZM45.7341 12.32C45.7341 12.6933 45.8741 12.9933 46.1541 13.22C46.4474 13.4333 46.8341 13.54 47.3141 13.54C47.7674 13.54 48.1941 13.4667 48.5941 13.32C48.9941 13.1733 49.3141 12.9333 49.5541 12.6C49.8074 12.2667 49.9341 11.8333 49.9341 11.3V10.46L47.4141 10.98C46.8407 11.0867 46.4141 11.24 46.1341 11.44C45.8674 11.64 45.7341 11.9333 45.7341 12.32Z" fill="black"/>
<path d="M57.6403 0.5V12.2C57.6403 12.6933 57.727 13.0333 57.9003 13.22C58.0736 13.4067 58.3603 13.5 58.7603 13.5C59.0003 13.5 59.2003 13.4867 59.3603 13.46C59.5336 13.42 59.747 13.3533 60.0003 13.26L59.7603 14.86C59.2936 15.0867 58.7403 15.2 58.1003 15.2C57.207 15.2 56.547 14.9733 56.1203 14.52C55.707 14.0667 55.5003 13.3533 55.5003 12.38V0.5H57.6403Z" fill="black"/>
<path d="M65.6308 15.2C64.8041 15.2 64.0574 14.9933 63.3908 14.58C62.7241 14.1667 62.1908 13.5733 61.7908 12.8C61.4041 12.0267 61.2108 11.1 61.2108 10.02C61.2108 8.9 61.4174 7.95333 61.8308 7.18C62.2441 6.40667 62.7974 5.82 63.4908 5.42C64.1841 5.00667 64.9441 4.8 65.7708 4.8C66.4908 4.8 67.1174 4.97333 67.6508 5.32C68.1974 5.65333 68.6041 6.1 68.8708 6.66V0.5H71.0108V15H69.1108L68.9908 13.1C68.7241 13.7667 68.2841 14.2867 67.6708 14.66C67.0574 15.02 66.3774 15.2 65.6308 15.2ZM66.0908 13.48C66.9308 13.48 67.6041 13.16 68.1108 12.52C68.6174 11.88 68.8708 11 68.8708 9.88C68.8708 8.84 68.6174 8.02667 68.1108 7.44C67.6174 6.84 66.9708 6.54 66.1708 6.54C65.2774 6.54 64.5841 6.84667 64.0908 7.46C63.5974 8.07333 63.3508 8.92 63.3508 10C63.3508 11.08 63.5908 11.9333 64.0708 12.56C64.5508 13.1733 65.2241 13.48 66.0908 13.48Z" fill="black"/>
</svg>
