<svg width="206" height="106" viewBox="0 0 206 106" fill="none" xmlns="http://www.w3.org/2000/svg">
<path d="M203 94.6667L203 11.3333L186.333 3M203 94.6667L186.333 103L119.667 69.6667M203 94.6667L136.333 61.3333M186.333 3L186.333 69.6667L153 53L169.667 44.6667L103 78L36.3333 44.6667L53 53L19.6667 69.6667L19.6667 2.99999M186.333 3L103 44.6667L19.6667 2.99999M169.667 61.3333L169.667 28L103 61.3333L36.3333 28L36.3333 61.3333M2.99999 94.6667L2.99999 11.3333L19.6667 2.99999M2.99999 94.6667L19.6667 103L86.3333 69.6667M2.99999 94.6667L69.6667 61.3333" stroke="white" stroke-width="5" stroke-linejoin="round"/>
</svg>
