<svg xmlns="http://www.w3.org/2000/svg" viewBox="0 0 24 24"><polygon points="3 19 3 12.5 4.5 11 19.5 11 21 12.5 21 19 3 19" fill="none" stroke="#000" stroke-miterlimit="10"/><rect x="2" y="19" width="20" height="3" fill="none" stroke="#000" stroke-miterlimit="10"/><rect x="11" y="7" width="2" height="4" fill="none" stroke="#000" stroke-miterlimit="10"/><path d="M12,5a1.4,1.4,0,0,0,1.5-1.5C13.5,2.6,12,1,12,1h0s-1.5,1.6-1.5,2.5A1.4,1.4,0,0,0,12,5Z" fill="none" stroke="#000" stroke-miterlimit="10"/><polyline points="3 13 5.5 15.5 6.5 15.5 8.5 13.5 9.5 13.5 11.5 15.5 12.5 15.5 14.5 13.5 15.5 13.5 17.5 15.5 18.5 15.5 21 13" fill="none" stroke="#000" stroke-miterlimit="10"/><line x1="12" y1="5" x2="12" y2="7" fill="none" stroke="#000" stroke-miterlimit="10"/></svg>