<svg xmlns="http://www.w3.org/2000/svg" viewBox="0 0 24 24"><path d="M12,7,4,15a1.42,1.42,0,0,0,0,2H4L2.5,18.5a2.12,2.12,0,0,0,0,3h0a2.12,2.12,0,0,0,3,0L7,20H7a1.42,1.42,0,0,0,2,0l8-8" fill="none" stroke="#000" stroke-miterlimit="10"/><line x1="8" y1="16" x2="14.42" y2="9.58" fill="none" stroke="#000" stroke-miterlimit="10"/><rect x="14.09" y="3.55" width="2.83" height="9.9" transform="translate(-1.47 13.45) rotate(-45)" fill="none" stroke="#000" stroke-miterlimit="10"/><path d="M18.62,9.62l2.5-2.5a3,3,0,0,0-4.24-4.24l-2.5,2.5" fill="none" stroke="#000" stroke-miterlimit="10"/></svg>