<svg xmlns="http://www.w3.org/2000/svg" viewBox="0 0 24 24"><path d="M20.983,7.812q-.119,2.629-3.671,7.207Q13.636,19.8,11.1,19.8c-1.057,0-1.934-.971-2.665-2.911L6.992,11.55q-.81-2.907-1.734-2.909a5.559,5.559,0,0,0-1.411.849L3,8.4Q4.334,7.224,5.626,6.052A5.952,5.952,0,0,1,8.291,4.433q2.1-.2,2.586,2.878.522,3.323.728,4.13.606,2.757,1.332,2.756.564,0,1.7-1.789a7.043,7.043,0,0,0,1.208-2.721c.108-1.028-.3-1.546-1.21-1.546a3.277,3.277,0,0,0-1.333.293c.89-2.9,2.576-4.317,5.072-4.227,1.854.045,2.721,1.248,2.619,3.6Z"/></svg>