<svg xmlns="http://www.w3.org/2000/svg" viewBox="0 0 24 24"><path d="M9.459,4.8a.357.357,0,0,1,.358-.357h5.648c.975,0,1.515.832,1.906,2.4l.315,1.249h.952C18.811,4.542,18.961,3,18.961,3s-2.4.27-3.818.27H7.981L4.146,3.147V4.174l1.293.245c.908.18,1.125.372,1.2,1.2,0,0,.083,2.453.083,6.481s-.068,6.457-.068,6.457c0,.73-.292,1-1.192,1.18l-1.292.247V21l3.848-.124h6.413c1.451,0,4.792.124,4.792.124.079-.878.562-4.86.641-5.3h-.9L18,17.885a2.807,2.807,0,0,1-3.082,1.833h-3.68c-1.222,0-1.811-.48-1.811-1.537V12.6s2.715,0,3.592.072c.684.048,1.1.244,1.32,1.2l.293,1.272h1.058l-.068-3.209L15.767,8.7H14.724l-.338,1.418c-.212.933-.36,1.1-1.315,1.2-1.25.127-3.612.105-3.612.105Z"/></svg>