<svg xmlns="http://www.w3.org/2000/svg" viewBox="0 0 24 24"><polyline points="22 6 22 2 18 2" fill="none" stroke="#000" stroke-miterlimit="10"/><polyline points="2 18 2 22 6 22" fill="none" stroke="#000" stroke-miterlimit="10"/><polyline points="18 22 22 22 22 18" fill="none" stroke="#000" stroke-miterlimit="10"/><polyline points="6 2 2 2 2 6" fill="none" stroke="#000" stroke-miterlimit="10"/><rect x="5.5" y="5.5" width="5" height="5" fill="none" stroke="#000" stroke-miterlimit="10"/><rect x="13.5" y="5.5" width="5" height="5" fill="none" stroke="#000" stroke-miterlimit="10"/><polyline points="13.5 19 13.5 16 13.5 13" fill="none" stroke="#000" stroke-miterlimit="10"/><polyline points="18.5 16 18.5 18.5 16 18.5" fill="none" stroke="#000" stroke-miterlimit="10"/><line x1="16" y1="13.5" x2="19" y2="13.5" fill="none" stroke="#000" stroke-miterlimit="10"/><rect x="5.5" y="13.5" width="5" height="5" fill="none" stroke="#000" stroke-miterlimit="10"/><line x1="7.5" y1="8" x2="8.5" y2="8" fill="none" stroke="#000" stroke-miterlimit="10"/><line x1="15.5" y1="8" x2="16.5" y2="8" fill="none" stroke="#000" stroke-miterlimit="10"/><line x1="7.5" y1="16" x2="8.5" y2="16" fill="none" stroke="#000" stroke-miterlimit="10"/><line x1="16.5" y1="16" x2="13.5" y2="16" fill="none" stroke="#000" stroke-miterlimit="10"/></svg>