<svg xmlns="http://www.w3.org/2000/svg" viewBox="0 0 24 24"><path d="M9,21.54a10,10,0,0,0,7-.36" fill="none" stroke="#000"/><path d="M3.34,17A10,10,0,0,0,7,20.66" fill="none" stroke="#000"/><path d="M2.05,11c0,.33,0,.67,0,1a9.91,9.91,0,0,0,.46,3" fill="none" stroke="#000"/><path d="M4,6A10,10,0,0,0,2.46,9" fill="none" stroke="#000"/><path d="M8,2.82A9.85,9.85,0,0,0,6,4" fill="none" stroke="#000"/><path d="M18,20A10,10,0,0,0,13,2.05" fill="none" stroke="#000"/><line x1="12" y1="8.5" x2="12" y2="15.5" fill="none" stroke="#000" stroke-miterlimit="10"/><line x1="15.5" y1="12" x2="8.5" y2="12" fill="none" stroke="#000" stroke-miterlimit="10"/></svg>