<svg xmlns="http://www.w3.org/2000/svg" viewBox="0 0 24 24"><line x1="12" y1="18" x2="12" y2="21" fill="none" stroke="#000" stroke-miterlimit="10"/><line x1="12" y1="9" x2="12" y2="15" fill="none" stroke="#000" stroke-miterlimit="10"/><line x1="12" y1="3" x2="12" y2="6" fill="none" stroke="#000" stroke-miterlimit="10"/><line x1="15" y1="21" x2="9" y2="21" fill="none" stroke="#000"/><polyline points="21 18 21 21 18 21" fill="none" stroke="#000"/><line x1="21" y1="9" x2="21" y2="15" fill="none" stroke="#000"/><polyline points="18 3 21 3 21 6" fill="none" stroke="#000"/><line x1="9" y1="3" x2="15" y2="3" fill="none" stroke="#000"/><polyline points="3 6 3 3 6 3" fill="none" stroke="#000"/><line x1="3" y1="15" x2="3" y2="9" fill="none" stroke="#000"/><polyline points="6 21 3 21 3 18" fill="none" stroke="#000"/><line x1="6" y1="12" x2="3" y2="12" fill="none" stroke="#000" stroke-miterlimit="10"/><line x1="15" y1="12" x2="9" y2="12" fill="none" stroke="#000" stroke-miterlimit="10"/><line x1="21" y1="12" x2="18" y2="12" fill="none" stroke="#000" stroke-miterlimit="10"/></svg>