<svg xmlns="http://www.w3.org/2000/svg" viewBox="0 0 24 24"><path d="M12,2A10,10,0,1,0,22,12,10,10,0,0,0,12,2Zm4.175,3.953a1.036,1.036,0,1,1-1.04,1.088l-2.164-.456L12.3,9.708a7.227,7.227,0,0,1,3.9,1.24,1.4,1.4,0,0,1,1.006-.41A1.463,1.463,0,0,1,18.667,12a1.514,1.514,0,0,1-.842,1.345,2.616,2.616,0,0,1,.035.433c0,2.245-2.608,4.059-5.837,4.059s-5.836-1.814-5.836-4.059a2.786,2.786,0,0,1,.035-.445,1.461,1.461,0,0,1,.6-2.795,1.478,1.478,0,0,1,1.006.409,7.094,7.094,0,0,1,3.953-1.239l.738-3.485a.285.285,0,0,1,.117-.165.292.292,0,0,1,.2-.035l2.422.515A1.011,1.011,0,0,1,16.175,5.953ZM9.708,12a1.041,1.041,0,1,0,1.04,1.041A1.043,1.043,0,0,0,9.708,12Zm4.584,0a1.041,1.041,0,1,0,1.041,1.041A1.042,1.042,0,0,0,14.292,12ZM9.737,15.325a.271.271,0,0,0-.193.464,3.859,3.859,0,0,0,2.468.761,3.8,3.8,0,0,0,2.467-.761A.3.3,0,0,0,14.5,15.4a.274.274,0,0,0-.386,0,3.307,3.307,0,0,1-2.094.609A3.282,3.282,0,0,1,9.93,15.4a.273.273,0,0,0-.193-.079Z"/></svg>